<svg width="24.000000" height="24.000000" viewBox="0 0 24 24" fill="none" xmlns="http://www.w3.org/2000/svg" xmlns:xlink="http://www.w3.org/1999/xlink">
	<desc>
			Created with Pixso.
	</desc>
	<defs>
		<clipPath id="clip306_668">
			<rect id="Icon" rx="0.000000" width="23.000000" height="23.000000" transform="translate(0.500000 0.500000)" fill="white" fill-opacity="0"/>
		</clipPath>
	</defs>
	<rect id="Icon" rx="0.000000" width="23.000000" height="23.000000" transform="translate(0.500000 0.500000)" fill="#FFFFFF" fill-opacity="0"/>
	<g clip-path="url(#clip306_668)">
		<path id="Vector" d="M13.53 12.22C13.53 15.99 10.5 19.05 6.76 19.05C3.03 19.05 0 15.99 0 12.22C0 8.45 3.03 5.39 6.76 5.39C10.5 5.39 13.53 8.45 13.53 12.22Z" fill="#FFFFFF" fill-opacity="1.000000" fill-rule="nonzero"/>
		<path id="Vector" d="M20.96 12.22C20.96 15.77 19.44 18.65 17.57 18.65C15.71 18.65 14.19 15.77 14.19 12.22C14.19 8.67 15.7 5.79 17.57 5.79C19.44 5.79 20.96 8.67 20.96 12.22Z" fill="#FFFFFF" fill-opacity="1.000000" fill-rule="nonzero"/>
		<path id="Vector" d="M24 12.22C24 15.4 23.46 17.98 22.8 17.98C22.15 17.98 21.61 15.4 21.61 12.22C21.61 9.04 22.15 6.46 22.8 6.46C23.46 6.46 24 9.04 24 12.22Z" fill="#FFFFFF" fill-opacity="1.000000" fill-rule="nonzero"/>
	</g>
</svg>
