<svg width="24.000000" height="24.000000" viewBox="0 0 24 24" fill="none" xmlns="http://www.w3.org/2000/svg" xmlns:xlink="http://www.w3.org/1999/xlink">
	<desc>
			Created with Pixso.
	</desc>
	<defs>
		<clipPath id="clip306_673">
			<rect id="Icon" rx="0.000000" width="23.000000" height="23.000000" transform="translate(0.500000 0.500000)" fill="white" fill-opacity="0"/>
		</clipPath>
	</defs>
	<rect id="Icon" rx="0.000000" width="23.000000" height="23.000000" transform="translate(0.500000 0.500000)" fill="#FFFFFF" fill-opacity="0"/>
	<g clip-path="url(#clip306_673)">
		<path id="Vector" d="M20.86 1.6L3.13 1.6C2.72 1.6 2.33 1.76 2.04 2.04C1.76 2.33 1.59 2.72 1.59 3.13L1.59 20.86C1.59 21.27 1.76 21.66 2.04 21.95C2.33 22.23 2.72 22.39 3.13 22.39L20.86 22.39C21.27 22.39 21.66 22.23 21.95 21.95C22.23 21.66 22.39 21.27 22.39 20.86L22.39 3.13C22.39 2.72 22.23 2.33 21.95 2.04C21.66 1.76 21.27 1.6 20.86 1.6ZM7.79 19.31L4.67 19.31L4.67 9.38L7.79 9.38L7.79 19.31ZM6.23 8C5.87 8 5.53 7.89 5.23 7.7C4.94 7.5 4.71 7.22 4.58 6.89C4.44 6.56 4.41 6.2 4.48 5.85C4.55 5.5 4.72 5.18 4.97 4.93C5.22 4.68 5.54 4.52 5.89 4.45C6.24 4.38 6.6 4.41 6.93 4.55C7.26 4.69 7.54 4.92 7.73 5.21C7.93 5.51 8.03 5.86 8.03 6.21C8.04 6.45 7.99 6.68 7.9 6.9C7.81 7.12 7.68 7.32 7.51 7.49C7.34 7.66 7.14 7.79 6.92 7.88C6.7 7.97 6.47 8.01 6.23 8ZM19.32 19.32L16.2 19.32L16.2 13.9C16.2 12.3 15.51 11.8 14.64 11.8C13.71 11.8 12.8 12.5 12.8 13.94L12.8 19.32L9.67 19.32L9.67 9.39L12.68 9.39L12.68 10.76L12.72 10.76C13.02 10.15 14.08 9.11 15.69 9.11C17.44 9.11 19.32 10.14 19.32 13.18L19.32 19.32Z" fill="#FFFFFF" fill-opacity="1.000000" fill-rule="nonzero"/>
	</g>
</svg>
