<svg width="149.999023" height="149.999512" viewBox="0 0 149.999 150" fill="none" xmlns="http://www.w3.org/2000/svg" xmlns:xlink="http://www.w3.org/1999/xlink">
	<desc>
			Created with Pixso.
	</desc>
	<defs/>
	<path id="Vector" d="M99.99 150L99.99 125C113.83 125 124.99 113.83 124.99 100L149.99 100C149.99 127.66 127.58 150 99.99 150Z" fill="#FFD11A" fill-opacity="1.000000" fill-rule="nonzero"/>
	<path id="Vector" d="M99.99 150L99.99 125C86.16 125 75 113.83 75 100L50 100C50 127.66 72.41 150 99.99 150Z" fill="#FFD11A" fill-opacity="1.000000" fill-rule="nonzero"/>
	<path id="Vector" d="M0 99.99L25 99.99C25 113.83 36.16 124.99 49.99 124.99L49.99 149.99C22.41 149.99 0 127.66 0 99.99Z" fill="#FFD11A" fill-opacity="1.000000" fill-rule="nonzero"/>
	<path id="Vector" d="M0 99.99L25 99.99C25 86.16 36.16 74.99 49.99 74.99L49.99 49.99C22.41 49.99 0 72.41 0 99.99Z" fill="#FFD11A" fill-opacity="1.000000" fill-rule="nonzero"/>
	<path id="Vector" d="M49.99 0L49.99 24.99C36.16 24.99 25 36.16 25 49.99L0 49.99C0 22.41 22.41 0 49.99 0Z" fill="#FFD11A" fill-opacity="1.000000" fill-rule="nonzero"/>
	<path id="Vector" d="M50 0L50 24.99C63.83 24.99 75 36.16 75 49.99L99.99 49.99C99.99 22.41 77.58 0 50 0Z" fill="#FFD11A" fill-opacity="1.000000" fill-rule="nonzero"/>
	<path id="Vector" d="M149.99 49.99L124.99 49.99C124.99 36.16 113.83 24.99 99.99 24.99L99.99 0C127.58 0 149.99 22.41 149.99 49.99Z" fill="#FFD11A" fill-opacity="1.000000" fill-rule="nonzero"/>
	<path id="Vector" d="M149.99 49.99L124.99 49.99C124.99 63.83 113.83 74.99 99.99 74.99L99.99 99.99C127.58 99.99 149.99 77.66 149.99 49.99Z" fill="#FFD11A" fill-opacity="1.000000" fill-rule="nonzero"/>
</svg>
