<svg width="178.906250" height="50.000000" viewBox="0 0 178.906 50" fill="none" xmlns="http://www.w3.org/2000/svg" xmlns:xlink="http://www.w3.org/1999/xlink">
	<desc>
			Created with Pixso.
	</desc>
	<defs/>
	<path id="Vector" d="M164.62 16.36L167.69 16.36L167.69 21.07L167.51 23.16L167.69 23.16C168.02 22.61 168.49 22.16 169.1 21.82C169.73 21.46 170.42 21.28 171.19 21.28C172.67 21.28 173.77 21.72 174.47 22.59C175.19 23.47 175.55 24.66 175.55 26.18L175.55 33.14L172.48 33.14L172.48 26.55C172.48 25.76 172.29 25.16 171.91 24.75C171.54 24.33 171.02 24.12 170.34 24.12C169.92 24.12 169.55 24.21 169.22 24.4C168.89 24.57 168.61 24.81 168.37 25.12C168.16 25.44 167.98 25.8 167.86 26.23C167.75 26.63 167.69 27.07 167.69 27.54L167.69 33.14L164.62 33.14L164.62 16.36Z" fill="#FFFFFF" fill-opacity="1.000000" fill-rule="nonzero"/>
	<path id="Vector" d="M163.45 30.21C162.95 31.18 162.25 31.98 161.35 32.6C160.45 33.21 159.34 33.51 157.99 33.51C157.1 33.51 156.28 33.37 155.53 33.07C154.8 32.76 154.16 32.33 153.61 31.78C153.08 31.23 152.66 30.59 152.35 29.86C152.05 29.11 151.9 28.29 151.9 27.4C151.9 26.51 152.05 25.69 152.35 24.94C152.66 24.19 153.08 23.55 153.61 23.01C154.16 22.47 154.8 22.05 155.53 21.75C156.28 21.44 157.1 21.28 157.99 21.28C159.32 21.28 160.44 21.59 161.35 22.19C162.25 22.8 162.92 23.59 163.34 24.56L160.52 25.73C160.26 25.2 159.92 24.8 159.49 24.54C159.09 24.26 158.57 24.12 157.95 24.12C157.54 24.12 157.16 24.19 156.8 24.35C156.44 24.51 156.12 24.73 155.84 25.01C155.57 25.29 155.36 25.63 155.2 26.04C155.05 26.44 154.97 26.9 154.97 27.4C154.97 27.9 155.05 28.35 155.2 28.76C155.36 29.16 155.57 29.51 155.84 29.79C156.12 30.07 156.44 30.29 156.8 30.44C157.16 30.6 157.54 30.68 157.95 30.68C158.59 30.68 159.13 30.54 159.56 30.26C160.02 29.96 160.38 29.54 160.64 28.99L163.45 30.21Z" fill="#FFFFFF" fill-opacity="1.000000" fill-rule="nonzero"/>
	<path id="Vector" d="M151 30.37C150.46 31.31 149.75 32.07 148.84 32.65C147.95 33.23 146.85 33.51 145.56 33.51C144.68 33.51 143.87 33.37 143.12 33.07C142.39 32.76 141.75 32.33 141.2 31.78C140.65 31.23 140.22 30.59 139.91 29.86C139.61 29.11 139.46 28.29 139.46 27.4C139.46 26.57 139.61 25.79 139.91 25.05C140.21 24.3 140.62 23.66 141.15 23.11C141.68 22.55 142.31 22.1 143.03 21.77C143.76 21.44 144.57 21.28 145.44 21.28C146.36 21.28 147.18 21.44 147.9 21.75C148.62 22.05 149.22 22.47 149.71 23.01C150.19 23.55 150.56 24.18 150.81 24.91C151.06 25.65 151.18 26.44 151.18 27.3C151.18 27.41 151.18 27.51 151.18 27.59C151.17 27.68 151.16 27.76 151.16 27.84C151.14 27.92 151.14 28.01 151.14 28.1L142.49 28.1C142.55 28.57 142.67 28.98 142.86 29.32C143.07 29.65 143.31 29.93 143.59 30.16C143.89 30.38 144.21 30.55 144.55 30.66C144.89 30.75 145.25 30.8 145.6 30.8C146.31 30.8 146.89 30.64 147.34 30.33C147.81 30 148.17 29.59 148.44 29.11L151 30.37ZM148.21 25.92C148.19 25.72 148.12 25.49 148 25.24C147.89 24.99 147.71 24.76 147.48 24.54C147.26 24.32 146.98 24.14 146.64 24C146.31 23.86 145.91 23.79 145.44 23.79C144.78 23.79 144.21 23.98 143.71 24.35C143.21 24.73 142.85 25.25 142.65 25.92L148.21 25.92Z" fill="#FFFFFF" fill-opacity="1.000000" fill-rule="nonzero"/>
	<path id="Vector" d="M132.97 33.14L132.97 19.36L128.29 19.36L128.29 16.36L140.83 16.36L140.83 19.36L136.14 19.36L136.14 33.14L132.97 33.14Z" fill="#FFFFFF" fill-opacity="1.000000" fill-rule="nonzero"/>
	<path id="Vector" d="M127.59 30.37C127.06 31.31 126.34 32.07 125.43 32.65C124.54 33.23 123.45 33.51 122.15 33.51C121.28 33.51 120.47 33.37 119.72 33.07C118.98 32.76 118.34 32.33 117.79 31.78C117.25 31.23 116.82 30.59 116.51 29.86C116.21 29.11 116.06 28.29 116.06 27.4C116.06 26.57 116.21 25.79 116.51 25.05C116.8 24.3 117.22 23.66 117.75 23.11C118.28 22.55 118.9 22.1 119.62 21.77C120.36 21.44 121.16 21.28 122.04 21.28C122.96 21.28 123.78 21.44 124.5 21.75C125.22 22.05 125.82 22.47 126.3 23.01C126.79 23.55 127.15 24.18 127.4 24.91C127.65 25.65 127.78 26.44 127.78 27.3C127.78 27.41 127.78 27.51 127.78 27.59C127.76 27.68 127.76 27.76 127.76 27.84C127.74 27.92 127.73 28.01 127.73 28.1L119.08 28.1C119.15 28.57 119.27 28.98 119.46 29.32C119.66 29.65 119.9 29.93 120.18 30.16C120.48 30.38 120.8 30.55 121.15 30.66C121.49 30.75 121.84 30.8 122.2 30.8C122.9 30.8 123.48 30.64 123.93 30.33C124.4 30 124.77 29.59 125.04 29.11L127.59 30.37ZM124.8 25.92C124.79 25.72 124.72 25.49 124.59 25.24C124.48 24.99 124.31 24.76 124.08 24.54C123.86 24.32 123.58 24.14 123.23 24C122.9 23.86 122.51 23.79 122.04 23.79C121.38 23.79 120.8 23.98 120.3 24.35C119.8 24.73 119.45 25.25 119.25 25.92L124.8 25.92Z" fill="#FFFFFF" fill-opacity="1.000000" fill-rule="nonzero"/>
	<path id="Vector" d="M108.58 21.66L111.47 21.66L111.47 23.25L111.65 23.25C111.8 22.97 111.98 22.71 112.22 22.48C112.45 22.24 112.71 22.04 112.99 21.87C113.29 21.69 113.6 21.56 113.93 21.47C114.27 21.37 114.61 21.33 114.94 21.33C115.34 21.33 115.69 21.37 115.97 21.44C116.26 21.52 116.51 21.62 116.72 21.75L115.9 24.54C115.71 24.44 115.5 24.37 115.26 24.33C115.05 24.26 114.77 24.23 114.44 24.23C114.02 24.23 113.64 24.32 113.3 24.49C112.95 24.65 112.65 24.87 112.4 25.17C112.17 25.47 111.98 25.82 111.84 26.23C111.72 26.62 111.65 27.05 111.65 27.51L111.65 33.14L108.58 33.14L108.58 21.66Z" fill="#FFFFFF" fill-opacity="1.000000" fill-rule="nonzero"/>
	<path id="Vector" d="M103.77 31.64L103.59 31.64C103.23 32.22 102.74 32.68 102.13 33.02C101.52 33.35 100.83 33.51 100.05 33.51C98.59 33.51 97.51 33.07 96.79 32.18C96.09 31.29 95.74 30.1 95.74 28.62L95.74 21.66L98.81 21.66L98.81 28.24C98.81 29.07 98.99 29.69 99.34 30.09C99.72 30.48 100.26 30.68 100.96 30.68C101.38 30.68 101.75 30.59 102.06 30.42C102.39 30.23 102.67 29.99 102.88 29.69C103.12 29.38 103.29 29.02 103.4 28.62C103.52 28.19 103.59 27.75 103.59 27.28L103.59 21.66L106.66 21.66L106.66 33.14L103.77 33.14L103.77 31.64Z" fill="#FFFFFF" fill-opacity="1.000000" fill-rule="nonzero"/>
	<path id="Vector" d="M88.39 24.28L86.37 24.28L86.37 21.66L88.39 21.66L88.39 18.14L91.46 18.14L91.46 21.66L94.27 21.66L94.27 24.28L91.46 24.28L91.46 28.73C91.46 29 91.48 29.25 91.53 29.48C91.59 29.7 91.7 29.89 91.86 30.05C92.08 30.3 92.39 30.42 92.8 30.42C93.06 30.42 93.27 30.4 93.43 30.35C93.59 30.29 93.73 30.21 93.87 30.12L94.74 32.81C94.38 32.98 93.99 33.11 93.57 33.19C93.16 33.28 92.71 33.33 92.21 33.33C91.63 33.33 91.11 33.24 90.64 33.07C90.19 32.88 89.8 32.63 89.49 32.32C88.76 31.62 88.39 30.62 88.39 29.32L88.39 24.28Z" fill="#FFFFFF" fill-opacity="1.000000" fill-rule="nonzero"/>
	<path id="Vector" d="M82.2 31.64L82.01 31.64C81.65 32.22 81.17 32.68 80.56 33.02C79.95 33.35 79.26 33.51 78.47 33.51C77.02 33.51 75.94 33.07 75.22 32.18C74.51 31.29 74.16 30.1 74.16 28.62L74.16 21.66L77.23 21.66L77.23 28.24C77.23 29.07 77.41 29.69 77.77 30.09C78.15 30.48 78.69 30.68 79.39 30.68C79.81 30.68 80.18 30.59 80.49 30.42C80.82 30.23 81.09 29.99 81.31 29.69C81.54 29.38 81.72 29.02 81.83 28.62C81.95 28.19 82.01 27.75 82.01 27.28L82.01 21.66L85.08 21.66L85.08 33.14L82.2 33.14L82.2 31.64Z" fill="#FFFFFF" fill-opacity="1.000000" fill-rule="nonzero"/>
	<path id="Vector" d="M62.72 16.36L73.36 16.36L73.36 19.36L65.89 19.36L65.89 23.44L72.61 23.44L72.61 26.44L65.89 26.44L65.89 33.14L62.72 33.14L62.72 16.36Z" fill="#FFFFFF" fill-opacity="1.000000" fill-rule="nonzero"/>
	<path id="Vector" d="M33.33 50L33.33 41.66C37.94 41.66 41.66 37.94 41.66 33.33L50 33.33C50 42.55 42.52 50 33.33 50Z" fill="#FFD11A" fill-opacity="1.000000" fill-rule="nonzero"/>
	<path id="Vector" d="M33.33 50L33.33 41.66C28.72 41.66 25 37.94 25 33.33L16.66 33.33C16.66 42.55 24.13 50 33.33 50Z" fill="#FFD11A" fill-opacity="1.000000" fill-rule="nonzero"/>
	<path id="Vector" d="M0 33.33L8.33 33.33C8.33 37.94 12.05 41.66 16.66 41.66L16.66 50C7.47 50 0 42.55 0 33.33Z" fill="#FFD11A" fill-opacity="1.000000" fill-rule="nonzero"/>
	<path id="Vector" d="M0 33.33L8.33 33.33C8.33 28.72 12.05 25 16.66 25L16.66 16.66C7.47 16.66 0 24.13 0 33.33Z" fill="#FFD11A" fill-opacity="1.000000" fill-rule="nonzero"/>
	<path id="Vector" d="M16.66 0L16.66 8.33C12.05 8.33 8.33 12.05 8.33 16.66L0 16.66C0 7.47 7.47 0 16.66 0Z" fill="#FFD11A" fill-opacity="1.000000" fill-rule="nonzero"/>
	<path id="Vector" d="M16.66 0L16.66 8.33C21.27 8.33 25 12.05 25 16.66L33.33 16.66C33.33 7.47 25.86 0 16.66 0Z" fill="#FFD11A" fill-opacity="1.000000" fill-rule="nonzero"/>
	<path id="Vector" d="M50 16.66L41.66 16.66C41.66 12.05 37.94 8.33 33.33 8.33L33.33 0C42.52 0 50 7.47 50 16.66Z" fill="#FFD11A" fill-opacity="1.000000" fill-rule="nonzero"/>
	<path id="Vector" d="M50 16.66L41.66 16.66C41.66 21.27 37.94 25 33.33 25L33.33 33.33C42.52 33.33 50 25.88 50 16.66Z" fill="#FFD11A" fill-opacity="1.000000" fill-rule="nonzero"/>
</svg>

