<svg width="22.799805" height="19.200195" viewBox="0 0 22.7998 19.2002" fill="none" xmlns="http://www.w3.org/2000/svg" xmlns:xlink="http://www.w3.org/1999/xlink">
	<desc>
			Created with Pixso.
	</desc>
	<defs/>
	<path id="Vector" d="M20.45 4.78C20.46 4.99 20.46 5.19 20.46 5.4C20.47 11.8 15.77 19.2 7.16 19.2C4.63 19.2 2.13 18.44 0 17.02C0.37 17.06 0.74 17.08 1.11 17.08C3.21 17.08 5.25 16.35 6.91 15C4.91 14.96 3.15 13.61 2.54 11.63C3.25 11.77 3.97 11.75 4.65 11.54C2.48 11.1 0.91 9.12 0.9 6.8C0.9 6.78 0.9 6.76 0.9 6.74C1.55 7.12 2.28 7.33 3.02 7.35C0.98 5.93 0.34 3.1 1.58 0.88C3.96 3.91 7.46 5.75 11.22 5.95C10.84 4.27 11.36 2.5 12.57 1.31C14.45 -0.52 17.41 -0.43 19.19 1.52C20.24 1.31 21.25 0.91 22.16 0.34C21.81 1.46 21.08 2.41 20.11 3.02C21.04 2.9 21.94 2.64 22.79 2.26C22.16 3.24 21.37 4.08 20.45 4.78Z" fill="#FFFFFF" fill-opacity="1.000000" fill-rule="nonzero"/>
</svg>
