<svg width="16.500000" height="16.500000" viewBox="0 0 16.5 16.5" fill="none" xmlns="http://www.w3.org/2000/svg" xmlns:xlink="http://www.w3.org/1999/xlink">
	<desc>
			Created with Pixso.
	</desc>
	<defs/>
	<path id="Vector 431 (Stroke)" d="M4.5 0L15.75 0C15.94 0 16.13 0.07 16.28 0.21C16.42 0.36 16.5 0.55 16.5 0.75L16.5 12C16.5 12.41 16.16 12.75 15.75 12.75C15.33 12.75 15 12.41 15 12L15 2.56L1.28 16.28C0.98 16.57 0.51 16.57 0.21 16.28C-0.08 15.98 -0.08 15.51 0.21 15.21L13.93 1.5L4.5 1.5C4.08 1.5 3.75 1.16 3.75 0.75C3.75 0.33 4.08 0 4.5 0Z" fill="#141414" fill-opacity="1.000000" fill-rule="evenodd"/>
</svg>
